<?xml version="1.0" standalone="no"?><!DOCTYPE svg PUBLIC "-//W3C//DTD SVG 1.1//EN" "http://www.w3.org/Graphics/SVG/1.1/DTD/svg11.dtd"><svg t="1718848987578" class="icon" viewBox="0 0 1024 1024" version="1.1" xmlns="http://www.w3.org/2000/svg" p-id="2673" xmlns:xlink="http://www.w3.org/1999/xlink" width="200" height="200"><path d="M640.02604 447.880218a64.078119 64.078119 0 1 0-64.02604-64.067703A64.192693 64.192693 0 0 0 640.02604 447.880218z m0 0l191.453169-319.765644H640.682236V64.057287A64.203108 64.203108 0 0 0 576.645781 0h-128.114574a64.192693 64.192693 0 0 0-64.02604 64.078119V128.114574H192.468712a64.213524 64.213524 0 0 0-64.036456 64.078119V636.823175a66.473757 66.473757 0 0 0 64.036456 66.661242h191.442754v64.078119H193.760273a64.192693 64.192693 0 0 0-64.026039 64.067702v128.114574a64.192693 64.192693 0 0 0 64.026039 64.067703h636.406543a64.192693 64.192693 0 0 0 64.036455-64.067703V830.994873a64.192693 64.192693 0 0 0-64.036455-64.067702H640.682236v-64.078119h190.796973a66.911221 66.911221 0 0 0 64.02604-66.661242V191.557328a63.65107 63.65107 0 0 0-64.02604-63.432338zM448.583286 64.057287h128.708276v64.057287H448.583286V64.057287zM830.177232 830.994873v128.114574h-636.406543v-128.114574h190.796973a63.786476 63.786476 0 0 0 64.02604-64.067702v-64.078119h128.708275v64.078119a64.203108 64.203108 0 0 0 64.036456 64.067702h188.849214z m1.301977-639.437545v447.213605h-639.010497V191.557328h639.010497zM384.557246 447.880218a64.078119 64.078119 0 1 0-64.026039-64.067703A64.192693 64.192693 0 0 0 384.557246 447.880218zM32.71088 319.765644a31.747416 31.747416 0 0 0-31.684922 31.716169v128.114574a31.695337 31.695337 0 1 0 63.380259 0V352.054683a31.487021 31.487021 0 0 0-31.695337-32.36195z m0 0h958.515745a31.757832 31.757832 0 0 0-31.695337 31.716169v128.114574a31.695337 31.695337 0 1 0 63.390675 0V352.054683a31.487021 31.487021 0 0 0-31.695338-32.36195z m0 0" fill="#232B36" p-id="2674"></path></svg>